<?xml version="1.0" standalone="no"?>
<!DOCTYPE svg PUBLIC "-//W3C//DTD SVG 20010904//EN"
 "http://www.w3.org/TR/2001/REC-SVG-20010904/DTD/svg10.dtd">
<svg version="1.0" xmlns="http://www.w3.org/2000/svg"
 width="300.000000pt" height="300.000000pt" viewBox="0 0 300.000000 300.000000"
 preserveAspectRatio="xMidYMid meet">
<metadata>
Created by potrace 1.11, written by Peter Selinger 2001-2013
</metadata>
<g transform="translate(0.000000,300.000000) scale(0.100000,-0.100000)"
fill="#000000" stroke="none">
<path d="M1485 2918 c-9 -66 -20 -130 -30 -168 0 -3 -4 -27 -9 -53 -4 -27 -9
-56 -11 -65 -1 -10 -10 -57 -19 -107 -23 -121 -22 -120 -53 -123 -48 -4 -141
-31 -219 -63 -198 -82 -363 -238 -461 -434 -31 -63 -69 -168 -77 -220 -15 -83
-14 -82 -64 -91 -26 -4 -49 -8 -52 -9 -19 -4 -82 -16 -115 -21 -22 -3 -59 -10
-83 -15 -23 -5 -59 -12 -80 -15 -85 -14 -174 -32 -179 -38 -4 -3 7 -6 23 -7
16 0 36 -2 44 -4 8 -2 31 -6 50 -9 19 -4 49 -9 65 -13 17 -3 39 -7 50 -9 11
-1 56 -9 100 -18 44 -8 96 -17 115 -20 91 -15 113 -23 116 -44 12 -110 72
-267 143 -376 104 -162 323 -325 489 -368 20 -5 53 -13 72 -18 19 -5 48 -11
64 -14 16 -3 30 -6 31 -8 2 -2 22 -107 41 -216 2 -12 6 -34 9 -50 3 -15 12
-63 20 -107 37 -204 39 -210 48 -138 4 27 8 58 11 69 2 12 7 37 10 55 3 19 8
45 11 59 3 14 16 89 30 167 29 161 31 170 48 170 105 4 273 69 401 155 178
121 325 345 370 563 9 43 17 79 19 80 1 1 56 12 122 24 66 11 132 23 148 26
15 3 38 7 52 9 13 3 60 12 102 20 43 9 88 17 100 19 55 8 16 21 -98 32 -8 1
-37 7 -65 13 -27 7 -87 19 -134 27 -47 8 -98 17 -115 20 -16 3 -46 8 -65 12
-19 3 -38 6 -42 5 -6 -1 -13 23 -24 83 -34 203 -192 441 -374 565 -107 73
-262 135 -382 155 -21 3 -38 9 -38 13 0 4 -7 45 -16 92 -8 47 -17 94 -18 105
-2 11 -13 74 -25 140 -43 239 -45 244 -56 163z m-139 -780 c-20 -97 -26 -133
-32 -175 -3 -26 -10 -57 -14 -68 -4 -11 -6 -28 -4 -38 3 -23 -8 -19 -137 44
-56 27 -103 48 -106 46 -2 -3 18 -51 46 -108 27 -57 51 -110 53 -118 2 -10
-35 -21 -147 -42 -82 -16 -155 -29 -161 -29 -16 0 36 137 78 207 65 108 174
204 299 262 99 46 131 51 125 19z m372 7 c170 -60 310 -183 393 -346 26 -53
53 -139 44 -147 -1 -2 -20 1 -41 7 -22 5 -55 12 -74 15 -78 11 -191 34 -196
39 -4 3 79 181 106 229 9 17 0 13 -174 -73 -41 -19 -62 -25 -67 -18 -4 6 -12
46 -20 88 -7 42 -13 78 -14 81 0 3 -4 23 -8 45 -4 22 -10 52 -13 68 -7 32 2
33 64 12z m-792 -810 c21 -4 46 -8 54 -10 8 -3 33 -7 55 -10 22 -4 55 -10 74
-15 19 -5 38 -7 43 -4 4 3 8 2 8 -2 0 -9 -41 -98 -82 -177 -16 -33 -27 -61
-25 -63 2 -3 56 20 120 51 120 57 128 60 125 48 -2 -8 9 -84 18 -126 5 -24 34
-180 34 -184 0 -19 -155 44 -227 92 -129 86 -254 258 -277 380 -7 36 -6 37 17
31 13 -3 42 -8 63 -11z m1229 -17 c-17 -86 -93 -215 -173 -296 -81 -82 -213
-159 -301 -176 -31 -5 -33 -4 -28 17 3 12 10 49 16 82 6 33 13 70 15 82 3 11
7 41 11 65 4 25 10 50 14 56 5 8 42 -5 120 -44 62 -30 115 -53 117 -51 3 2
-18 51 -45 108 -27 57 -51 110 -53 118 -3 14 59 30 177 47 22 3 56 9 75 14 60
14 62 13 55 -22z"/>
</g>
</svg>
